# xmcd CD database file
# Copyright (C) 1997 Ti Kan
# 
# Track frame offsets:
#     180
#     9614
#     22219
#     34495
#     47586
#     60881
#     72636
#     84905
#     99111
#     113269
#     125345
#     136636
#     151042
# 
# Disc length: 2171 seconds
# 
# Revision: 1
# Processed by: cddbd v1.4b41PL1 Copyright (c) Steve Scherf et al.
# Submitted via: DiscPlay 4.0.3
# 
DISCID=9408790d
DTITLE=Linda Lou Schriver - Double Shot of Country
DYEAR=1900
DGENRE=
TTITLE0=Cowboy Cute and Cowgirl Crazy
TTITLE1=Gone With The Wind
TTITLE2=Don't You Need Someone
TTITLE3=Goodmorning and Goodbye Blues
TTITLE4=Treat Me Like A Lady
TTITLE5=Didn't I
TTITLE6=It Aint That Way
TTITLE7=Our Movie Is Over
TTITLE8=You Cant Tell My Heart What To Do
TTITLE9=There You Go Again
TTITLE10=Tell Me What Is Wrong
TTITLE11=You Just Don't Get It, Do You
TTITLE12=A Faster Train
EXTD=
EXTT0=
EXTT1=
EXTT2=
EXTT3=
EXTT4=
EXTT5=
EXTT6=
EXTT7=
EXTT8=
EXTT9=
EXTT10=
EXTT11=
EXTT12=
PLAYORDER=
